
<svg version="1.0" xmlns="http://www.w3.org/2000/svg" width="512.000000pt" height="512.000000pt"
    viewBox="0 0 512.000000 512.000000" preserveAspectRatio="xMidYMid meet">

    <g transform="translate(0.000000,512.000000) scale(0.100000,-0.100000)" fill="#000000"
        stroke="none">
        <path d="M1993 4499 c-12 -12 -111 -165 -220 -340 -131 -211 -204 -319 -215
-319 -15 0 -17 17 -20 146 -3 146 -3 146 -31 170 l-28 24 -284 0 -284 0 -28
-24 c-28 -24 -28 -24 -31 -170 l-3 -146 -85 0 -84 0 0 145 c0 142 -1 147 -25
170 l-24 25 -288 0 c-302 -1 -307 -1 -331 -47 -9 -16 -12 -456 -12 -1753 l0
-1731 25 -24 24 -25 2509 0 c2456 0 2510 0 2533 19 l24 19 3 1572 2 1571 -29
30 -29 29 -141 0 -140 0 -3 190 c-3 182 -4 190 -26 212 l-23 23 -449 3 c-506
3 -500 4 -519 -66 -6 -20 -11 -110 -11 -199 l0 -163 -102 0 -103 0 -199 320
c-109 176 -209 329 -221 340 -21 20 -32 20 -566 20 -543 0 -545 0 -566 -21z
m1188 -396 c85 -135 156 -250 157 -255 2 -4 -348 -8 -778 -8 -430 0 -780 4
-778 8 2 5 72 120 157 255 l154 247 467 0 467 0 154 -247z m1427 -135 l3 -128
-341 0 -340 0 0 130 0 130 338 -2 337 -3 3 -127z m-4098 -43 l0 -85 -170 0
-170 0 0 85 0 85 170 0 170 0 0 -85z m860 0 l0 -85 -175 0 -175 0 0 85 0 85
175 0 175 0 0 -85z m378 -306 c-195 -116 -381 -286 -505 -461 l-59 -83 -507
-3 -507 -2 0 300 0 300 832 0 832 0 -86 -51z m1092 22 c289 -58 527 -187 741
-400 214 -215 346 -461 406 -758 27 -133 24 -414 -5 -550 -148 -686 -731
-1163 -1422 -1163 -491 0 -943 244 -1212 654 -102 155 -166 310 -209 506 -31
137 -34 414 -6 553 59 296 192 543 406 758 248 248 499 368 886 423 67 10 324
-4 415 -23z m2110 -271 l0 -300 -507 2 -507 3 -59 84 c-125 176 -305 340 -504
459 l-88 52 833 0 832 0 0 -300z m-3895 -552 c-37 -93 -77 -236 -97 -348 -20
-116 -17 -413 6 -535 50 -271 182 -554 345 -745 26 -30 51 -61 55 -67 6 -10
-116 -13 -593 -13 l-601 0 0 895 0 895 459 0 459 0 -33 -82z m3895 -813 l0
-895 -600 0 c-330 0 -600 2 -600 4 0 2 28 37 63 79 34 41 78 99 97 129 l35 53
30 -45 c168 -249 549 -134 549 165 -1 159 -116 281 -275 293 -37 2 -81 0 -99
-7 -31 -10 -32 -10 -26 12 36 124 49 231 50 412 1 247 -26 399 -108 608 l-34
87 459 0 459 0 0 -895z m-638 -422 c79 -79 25 -213 -87 -213 -76 0 -125 51
-125 129 0 42 35 95 74 112 40 17 106 3 138 -28z m-2678 -692 c39 -26 97 -63
129 -81 31 -17 57 -34 57 -36 0 -2 -371 -4 -825 -4 l-825 0 0 85 0 85 697 0
697 0 70 -49z m3316 -36 l0 -85 -825 0 c-454 0 -825 2 -825 4 0 2 28 20 63 39
34 20 91 56 127 81 l65 46 698 0 697 0 0 -85z" />
        <path d="M340 3415 l0 -85 255 0 255 0 0 85 0 85 -255 0 -255 0 0 -85z" />
        <path d="M1020 3415 l0 -85 85 0 85 0 0 85 0 85 -85 0 -85 0 0 -85z" />
        <path d="M2410 3489 c-473 -59 -873 -371 -1044 -814 -59 -154 -81 -277 -80
-455 0 -170 14 -260 64 -412 144 -430 505 -747 963 -845 116 -25 380 -25 497
0 464 100 816 413 964 858 242 727 -220 1510 -976 1654 -104 20 -291 27 -388
14z m265 -169 c261 -30 484 -137 666 -319 146 -145 241 -313 296 -520 23 -84
26 -116 26 -261 0 -145 -3 -177 -26 -261 -54 -205 -138 -357 -278 -503 -173
-182 -381 -292 -623 -331 -550 -89 -1084 250 -1240 789 -158 545 130 1127 661
1335 177 69 339 91 518 71z" />
        <path d="M2040 2886 c-211 -57 -340 -237 -328 -460 8 -146 25 -172 441 -641
197 -222 367 -407 378 -410 53 -17 67 -3 435 411 197 222 371 426 386 452 144
252 7 573 -277 647 -183 47 -381 -31 -482 -191 -16 -24 -31 -44 -34 -44 -4 0
-21 22 -39 49 -100 157 -303 236 -480 187z m196 -171 c70 -21 114 -62 180
-167 75 -122 100 -148 139 -148 46 0 68 21 137 132 73 117 122 163 197 185
129 37 260 -20 324 -141 31 -59 31 -174 0 -236 -19 -38 -631 -740 -652 -748
-11 -4 -634 705 -655 745 -10 20 -21 62 -23 94 -19 201 158 343 353 284z" />
    </g>
</svg>
