
<svg version="1.0" xmlns="http://www.w3.org/2000/svg"
 width="512.000000pt" height="512.000000pt" viewBox="0 0 512.000000 512.000000"
 preserveAspectRatio="xMidYMid meet">

<g transform="translate(0.000000,512.000000) scale(0.100000,-0.100000)"
fill="#000000" stroke="none">
<path d="M2390 4950 l0 -170 85 0 85 0 0 170 0 170 -85 0 -85 0 0 -170z"/>
<path d="M430 4985 l0 -124 -127 -3 -128 -3 -3 -82 -3 -83 131 0 130 0 0 -130
0 -130 85 0 85 0 0 130 0 130 130 0 131 0 -3 83 -3 82 -127 3 -128 3 0 124 0
125 -85 0 -85 0 0 -125z m170 -210 l0 -85 -85 0 -85 0 0 85 0 85 85 0 85 0 0
-85z"/>
<path d="M2885 4880 l-130 -130 55 -55 c30 -30 59 -55 65 -55 6 0 66 56 135
125 l125 125 -60 60 -60 60 -130 -130z"/>
<path d="M1241 4937 c-24 -12 -77 -113 -491 -922 -128 -252 -186 -375 -205
-440 -81 -280 -46 -555 103 -810 54 -92 229 -275 305 -319 26 -15 47 -33 47
-39 0 -12 -291 -1059 -297 -1066 -1 -2 -37 3 -78 12 -169 37 -295 5 -412 -106
-60 -56 -123 -170 -123 -222 0 -69 -17 -63 685 -251 358 -95 664 -174 681
-174 58 0 94 65 94 175 -1 185 -123 354 -298 411 -50 16 -53 19 -47 43 9 37
252 902 275 982 l20 66 97 6 c349 21 670 241 828 568 47 98 94 261 96 333 2
95 19 -30 49 -369 17 -192 38 -379 45 -415 38 -183 128 -351 259 -488 178
-186 384 -286 643 -312 59 -6 109 -13 111 -14 9 -10 291 -980 286 -987 -3 -5
-13 -9 -23 -9 -35 0 -143 -63 -192 -112 -90 -90 -136 -216 -126 -340 7 -76 24
-113 64 -131 21 -9 43 -7 127 15 1177 307 1221 319 1245 345 18 21 22 34 18
64 -9 66 -53 147 -114 207 -123 121 -278 156 -460 103 -18 -5 -35 -6 -37 -3
-6 10 -296 995 -293 997 40 23 148 109 196 156 214 214 325 521 292 811 -21
184 -40 235 -227 603 -420 827 -480 938 -511 953 -28 13 -69 3 -652 -152 -343
-92 -625 -166 -626 -164 -2 2 9 134 24 293 31 317 29 345 -22 364 -38 15
-1302 351 -1318 351 -8 0 -25 -6 -38 -13z m662 -326 c308 -82 560 -151 562
-153 4 -4 -93 -1049 -98 -1054 -2 -3 -28 7 -58 20 -203 89 -454 115 -694 71
-94 -17 -277 -19 -361 -4 -136 24 -261 75 -397 161 l-78 50 104 202 c57 110
180 348 273 529 92 180 173 327 179 327 5 0 261 -67 568 -149z m2165 -1062
c150 -292 271 -537 268 -544 -2 -7 -39 -27 -81 -44 -191 -80 -364 -98 -590
-61 -306 50 -564 5 -818 -141 -49 -28 -90 -49 -93 -47 -4 5 -104 1061 -101
1065 4 3 1121 302 1132 302 6 1 133 -238 283 -530z m-3281 -53 c134 -86 283
-145 431 -171 114 -20 305 -19 417 2 53 10 141 17 215 17 168 0 272 -22 423
-92 90 -41 89 -40 57 -168 -80 -312 -331 -554 -642 -618 -212 -44 -450 0 -629
116 -263 169 -419 497 -380 796 11 86 28 162 36 162 2 0 35 -20 72 -44z m3632
-679 c5 -13 14 -67 21 -119 42 -351 -154 -698 -481 -852 -123 -59 -185 -71
-354 -71 -169 0 -231 12 -352 70 -183 86 -321 224 -408 406 -32 69 -75 210
-75 249 0 17 118 94 230 150 175 89 417 122 620 84 136 -25 309 -29 425 -10
103 17 248 62 313 95 48 26 51 26 61 -2z m-3116 -517 c9 0 17 -6 17 -14 0 -21
-281 -1020 -290 -1029 -7 -8 -125 18 -149 32 -9 6 21 125 122 487 75 263 140
498 146 521 l11 41 63 -19 c34 -10 70 -19 80 -19z m2806 -1131 c78 -262 141
-479 141 -481 0 -6 -159 -42 -164 -37 -4 5 -273 917 -278 943 -2 15 10 22 72
40 41 12 78 20 82 17 3 -3 70 -220 147 -482z m-3231 -58 c355 -95 403 -114
451 -181 25 -35 58 -127 49 -136 -3 -2 -398 102 -1052 277 l-39 10 34 36 c53
54 112 81 184 82 22 0 190 -39 373 -88z m3846 -543 c46 -23 96 -66 96 -83 0
-6 -177 -56 -392 -113 -216 -56 -460 -120 -541 -141 l-148 -40 7 32 c15 70 75
152 133 182 20 10 345 99 686 188 35 10 116 -3 159 -25z"/>
<path d="M4350 4645 l0 -124 -127 -3 -128 -3 -3 -82 -3 -83 131 0 130 0 0
-130 0 -130 85 0 85 0 0 130 0 130 130 0 131 0 -3 83 -3 82 -127 3 -128 3 0
124 0 125 -85 0 -85 0 0 -125z m170 -210 l0 -85 -85 0 -85 0 0 85 0 85 85 0
85 0 0 -85z"/>
<path d="M2990 4435 l0 -85 168 2 167 3 3 83 3 82 -171 0 -170 0 0 -85z"/>
</g>
</svg>
