<svg version="1.0" xmlns="http://www.w3.org/2000/svg" width="512.000000pt" height="512.000000pt"
    viewBox="0 0 512.000000 512.000000" preserveAspectRatio="xMidYMid meet">

    <g transform="translate(0.000000,512.000000) scale(0.100000,-0.100000)" fill="#000000"
        stroke="none">
        <path d="M853 5096 c-98 -32 -207 -126 -235 -202 -11 -32 -14 -34 -43 -27 -16
4 -71 8 -120 8 -82 0 -97 -3 -157 -33 -81 -39 -148 -112 -180 -192 -34 -84
-32 -206 4 -282 62 -133 111 -168 380 -273 l197 -76 -87 -74 c-326 -273 -539
-669 -597 -1108 -135 -1031 684 -1965 1722 -1967 l122 0 50 -74 c182 -269 399
-460 689 -606 423 -212 948 -237 1394 -65 876 339 1333 1301 1038 2188 -113
339 -357 670 -637 866 -29 20 -52 39 -53 42 0 3 64 34 142 69 296 130 336 158
395 286 24 51 28 72 28 149 0 80 -3 97 -32 157 -17 36 -50 84 -73 107 -102 99
-261 132 -391 82 -25 -9 -28 -7 -45 30 -26 58 -122 143 -191 169 -81 31 -197
31 -275 1 -156 -60 -260 -243 -229 -402 6 -31 43 -134 81 -230 39 -95 70 -176
70 -179 0 -3 -51 5 -112 17 -78 16 -166 26 -283 30 l-170 6 -55 84 c-225 344
-609 615 -1015 716 -176 44 -242 52 -435 51 -198 0 -311 -15 -468 -60 -45 -13
-84 -24 -86 -24 -2 0 21 71 51 158 30 86 62 182 70 212 44 162 -46 351 -202
425 -71 33 -194 43 -262 21z m164 -197 c62 -23 113 -95 113 -158 0 -31 -174
-546 -192 -568 -6 -7 -19 -13 -30 -13 -11 0 -135 45 -276 100 -214 83 -262
106 -289 134 -80 87 -62 215 38 266 50 26 106 23 192 -9 50 -19 64 -20 100
-10 52 14 102 66 112 116 22 117 128 182 232 142z m1025 -759 c152 -29 243
-61 403 -140 153 -76 276 -162 390 -274 67 -67 208 -236 201 -243 -1 -2 -48
-14 -103 -28 l-101 -26 -124 124 c-176 178 -341 280 -558 347 -663 205 -1374
-128 -1641 -770 -60 -144 -90 -288 -96 -461 -7 -185 10 -307 62 -466 71 -212
167 -366 329 -529 188 -188 379 -297 628 -360 139 -35 395 -44 538 -20 273 48
524 179 725 381 155 154 263 327 330 528 53 160 68 271 63 466 -3 91 -7 172
-9 180 -4 14 54 31 153 45 l46 7 9 -58 c4 -32 8 -141 7 -243 0 -204 -16 -304
-74 -474 -34 -102 -36 -116 -16 -155 27 -51 95 -66 141 -29 34 27 58 81 96
224 54 204 74 462 49 653 -6 41 -8 76 -7 78 7 6 171 -29 246 -52 209 -67 413
-214 553 -399 77 -102 161 -274 195 -402 24 -90 27 -115 27 -284 0 -169 -3
-194 -27 -284 -54 -199 -178 -410 -321 -543 -220 -206 -488 -313 -786 -313
-319 0 -597 117 -823 348 l-59 59 79 43 c109 60 204 122 252 165 35 32 41 43
41 79 0 51 -20 81 -64 96 -43 14 -69 3 -181 -76 -153 -107 -375 -199 -580
-241 -137 -27 -454 -25 -592 5 -619 134 -1082 600 -1214 1222 -30 140 -33 426
-6 570 33 175 126 416 215 554 104 162 256 323 407 432 194 139 475 248 735
284 105 14 341 4 462 -20z m2056 -55 c53 -23 79 -51 102 -112 27 -74 46 -99
85 -117 47 -22 98 -20 153 8 66 32 97 38 142 26 135 -36 173 -200 68 -297 -25
-23 -512 -243 -539 -243 -9 0 -21 6 -27 13 -6 6 -58 133 -117 280 -94 235
-106 272 -100 307 9 56 43 101 95 128 52 26 87 28 138 7z m-2152 -340 c233
-41 450 -155 619 -325 38 -38 67 -71 64 -72 -2 -2 -38 -21 -79 -42 -507 -265
-856 -779 -921 -1356 -11 -102 -7 -380 7 -443 l7 -29 -49 7 c-243 36 -460 144
-640 320 -243 239 -356 524 -341 869 12 290 124 543 332 751 170 170 374 277
610 320 98 18 286 18 391 0z m1729 -465 c473 -100 863 -398 1078 -826 82 -162
128 -311 152 -491 88 -657 -255 -1297 -853 -1593 -118 -59 -241 -101 -382
-131 -152 -33 -448 -33 -600 0 -399 85 -723 294 -959 617 l-30 41 106 26 107
27 45 -52 c264 -310 626 -478 1032 -478 152 0 279 20 417 66 462 153 808 547
903 1029 19 93 19 397 0 490 -80 409 -351 768 -715 952 -416 209 -917 189
-1302 -53 -339 -213 -564 -546 -630 -930 -13 -74 -15 -136 -12 -263 3 -91 8
-173 12 -182 6 -14 -6 -19 -81 -33 -48 -9 -96 -16 -105 -16 -24 0 -33 81 -32
295 1 204 18 307 80 486 182 523 654 929 1189 1023 141 25 141 25 315 21 117
-3 194 -10 265 -25z m-791 -506 c12 -32 6 -283 -10 -364 -17 -90 -63 -228
-101 -305 -95 -190 -278 -380 -466 -485 -49 -27 -61 -31 -69 -19 -5 8 -7 84
-5 184 4 130 10 188 26 248 82 309 264 550 543 720 70 42 74 43 82 21z" />
        <path d="M3028 1725 c-82 -46 -57 -169 38 -182 74 -10 129 63 100 132 -7 16
-20 36 -29 43 -24 20 -79 24 -109 7z" />
    </g>
</svg>
