<svg version="1.0" xmlns="http://www.w3.org/2000/svg" width="512.000000pt" height="512.000000pt"
    viewBox="0 0 512.000000 512.000000" preserveAspectRatio="xMidYMid meet">

    <g transform="translate(0.000000,512.000000) scale(0.100000,-0.100000)" fill="#000000"
        stroke="none">
        <path d="M3853 5082 c-63 -22 -114 -61 -141 -104 -11 -18 -345 -717 -742
-1553 -397 -836 -736 -1544 -753 -1573 -42 -70 -147 -169 -222 -209 -33 -17
-436 -196 -895 -398 -459 -202 -855 -378 -879 -392 -112 -65 -190 -180 -213
-312 -41 -238 127 -472 368 -511 36 -6 536 -10 1264 -10 1339 1 1304 -1 1438
66 105 52 208 152 260 252 22 42 207 484 413 981 262 634 375 898 380 885 4
-11 56 -489 114 -1064 59 -575 112 -1056 119 -1070 21 -47 42 -50 329 -50 282
0 314 4 332 47 11 26 97 3278 91 3458 -5 175 -25 295 -73 455 -123 409 -405
766 -776 984 -204 120 -317 152 -414 118z m133 -168 c38 -18 64 -58 64 -98 0
-34 -1733 -3801 -1769 -3846 -16 -19 -52 -47 -81 -62 l-52 -28 -452 0 -452 0
-53 26 c-49 25 -120 101 -121 129 0 6 199 97 443 204 610 268 620 273 737 390
74 74 105 114 137 176 22 44 359 751 748 1570 389 820 719 1502 733 1517 21
23 35 30 75 37 5 0 24 -6 43 -15z m361 -211 c211 -160 397 -411 498 -673 58
-149 104 -375 105 -510 l0 -45 -420 -420 -419 -420 -452 -1090 c-248 -600
-462 -1111 -476 -1138 -35 -63 -120 -142 -185 -172 -29 -13 -82 -29 -118 -35
-45 -7 -432 -10 -1280 -8 l-1215 3 -57 28 c-102 50 -152 132 -153 247 0 65 4
82 29 128 17 30 47 67 67 83 45 35 629 294 638 282 4 -4 24 -34 46 -66 46 -70
101 -117 181 -154 l59 -28 500 0 500 0 67 32 c84 40 156 106 196 181 60 114
1750 3798 1757 3830 7 33 7 33 33 16 15 -9 59 -41 99 -71z m558 -3018 c-20
-808 -38 -1476 -41 -1482 -5 -18 -343 -18 -349 0 -2 6 -58 538 -125 1182
l-120 1170 332 333 c326 326 333 332 336 300 2 -18 -13 -694 -33 -1503z" />
    </g>
</svg>
