<svg version="1.0" xmlns="http://www.w3.org/2000/svg" width="512.000000pt" height="512.000000pt"
    viewBox="0 0 512.000000 512.000000" preserveAspectRatio="xMidYMid meet">

    <g transform="translate(0.000000,512.000000) scale(0.100000,-0.100000)" fill="#000000"
        stroke="none">
        <path d="M2127 5110 c-20 -5 -58 -21 -85 -34 -206 -105 -266 -384 -122 -566
17 -21 137 -121 267 -222 l236 -183 -564 -5 c-498 -5 -569 -7 -607 -22 -98
-39 -171 -112 -210 -210 -14 -38 -17 -101 -20 -505 l-3 -462 -212 -3 c-204 -3
-214 -4 -267 -29 -69 -33 -133 -97 -168 -169 l-27 -55 -3 -552 -3 -552 -145
-3 c-146 -3 -146 -3 -170 -31 -29 -33 -31 -76 -8 -162 43 -166 183 -291 354
-315 37 -6 473 -10 998 -10 l932 0 0 -254 0 -254 -222 -4 -223 -3 -65 -31
c-145 -69 -238 -200 -248 -348 -4 -70 -3 -76 21 -100 l26 -26 971 0 971 0 26
26 c24 24 25 30 21 100 -10 147 -104 280 -246 347 l-67 32 -222 3 -223 4 0
253 0 254 978 3 c930 3 979 4 1027 22 144 55 243 161 279 301 23 86 21 129 -8
162 -24 28 -24 28 -170 31 l-145 3 -3 552 c-3 547 -3 552 -25 600 -32 67 -113
150 -176 178 -48 22 -67 24 -264 27 l-212 3 -3 462 c-3 403 -6 467 -20 505
-39 98 -112 171 -210 210 -38 15 -104 17 -586 20 l-543 3 236 183 c285 222
318 259 345 390 14 70 8 135 -22 214 -30 80 -121 171 -203 201 -195 74 -375 5
-487 -187 l-26 -44 -31 55 c-40 70 -117 142 -186 173 -62 29 -175 40 -238 24z
m168 -179 c55 -24 90 -68 163 -197 61 -110 85 -134 133 -134 32 0 69 45 139
169 36 63 78 124 95 136 89 66 196 58 272 -20 73 -76 80 -189 16 -265 -21 -26
-478 -389 -520 -414 -8 -4 -112 70 -277 198 -220 172 -268 213 -285 249 -82
169 95 355 264 278z m1500 -1012 c69 -17 125 -82 125 -145 0 -21 -4 -24 -40
-24 l-40 0 0 -85 0 -85 45 0 45 0 0 -111 c0 -110 0 -110 -22 -104 -51 15 -133
73 -182 128 -104 119 -113 127 -142 127 -21 0 -38 -12 -68 -47 -87 -99 -147
-153 -205 -183 -236 -119 -500 -57 -655 154 -48 66 -82 85 -125 71 -11 -3 -41
-35 -67 -70 -153 -210 -419 -274 -653 -157 -55 28 -138 102 -202 182 -31 38
-40 44 -74 44 -33 0 -43 -6 -69 -38 -93 -116 -181 -189 -253 -211 -23 -6 -23
-6 -23 104 l0 111 45 0 45 0 0 85 0 85 -40 0 c-36 0 -40 2 -40 26 0 63 50 122
120 142 51 15 2417 16 2475 1z m-2106 -658 c182 -116 445 -133 639 -41 71 34
139 78 195 128 l38 35 32 -30 c147 -137 317 -200 511 -190 170 8 342 81 445
190 l34 36 59 -54 c65 -60 155 -114 236 -140 l53 -17 -3 -136 -3 -137 -1365 0
-1365 0 -3 137 -3 136 53 17 c81 26 172 80 236 140 l57 54 45 -44 c25 -24 74
-62 109 -84z m2814 -545 c34 -14 97 -78 97 -99 0 -7 3 -22 6 -34 6 -23 5 -23
-80 -23 l-86 0 0 -85 0 -85 85 0 86 0 -3 -127 -3 -128 -50 3 c-140 10 -286 98
-376 228 -30 44 -46 54 -84 54 -40 0 -53 -10 -100 -76 -56 -78 -150 -147 -248
-182 -188 -66 -425 -2 -545 146 -73 91 -98 112 -132 112 -25 0 -40 -8 -64 -36
-136 -156 -204 -205 -326 -235 -72 -17 -192 -15 -258 4 -119 36 -175 78 -309
232 -27 31 -36 36 -69 33 -33 -3 -45 -12 -99 -78 -114 -139 -242 -202 -410
-203 -170 0 -313 73 -411 209 -47 66 -59 74 -106 74 -22 0 -38 -9 -57 -31
-122 -145 -183 -193 -287 -228 -33 -10 -81 -21 -109 -23 l-50 -3 -3 128 -3
127 86 0 85 0 0 85 0 85 -86 0 c-85 0 -86 0 -80 23 3 12 6 27 6 34 0 20 62 85
95 99 45 20 3841 20 3888 0z m-3319 -655 c258 -155 582 -122 812 83 l55 49 47
-45 c128 -123 277 -181 462 -181 185 0 334 58 462 181 l47 45 61 -56 c70 -63
194 -129 290 -154 86 -22 244 -22 330 0 95 25 196 78 276 145 l70 58 68 -57
c110 -93 237 -147 389 -164 l57 -6 0 -210 0 -209 -2050 0 -2050 0 0 209 0 210
58 6 c151 17 278 71 389 164 l68 58 52 -46 c28 -25 77 -61 107 -80z m3746
-705 c0 -31 -67 -101 -125 -131 l-59 -30 -2186 0 -2186 0 -59 30 c-58 30 -125
100 -125 131 0 12 328 14 2370 14 2042 0 2370 -2 2370 -14z m-2282 -588 l-3
-253 -85 0 -85 0 -3 253 -2 252 90 0 90 0 -2 -252z m584 -438 c51 -15 115 -66
145 -117 l25 -43 -842 0 -841 0 23 42 c27 49 81 94 134 113 32 11 161 14 679
15 411 0 653 -4 677 -10z" />
        <path d="M1962 3668 l3 -83 83 -3 82 -3 0 86 0 85 -85 0 -86 0 3 -82z" />
        <path d="M2990 3665 l0 -86 83 3 82 3 3 83 3 82 -86 0 -85 0 0 -85z" />
        <path d="M1450 2475 l0 -85 85 0 85 0 0 85 0 85 -85 0 -85 0 0 -85z" />
        <path d="M2470 2475 l0 -85 90 0 90 0 0 85 0 85 -90 0 -90 0 0 -85z" />
        <path d="M3500 2475 l0 -85 85 0 85 0 0 85 0 85 -85 0 -85 0 0 -85z" />
    </g>
</svg>
